<?xml version="1.0" standalone="no"?>
<!DOCTYPE svg PUBLIC "-//W3C//DTD SVG 20010904//EN"
 "http://www.w3.org/TR/2001/REC-SVG-20010904/DTD/svg10.dtd">
<svg version="1.0" xmlns="http://www.w3.org/2000/svg"
 width="1280.000000pt" height="640.000000pt" viewBox="0 0 1280.000000 640.000000"
 preserveAspectRatio="xMidYMid meet">
<metadata>
Created by potrace 1.15, written by Peter Selinger 2001-2017
</metadata>
<g transform="translate(0.000000,640.000000) scale(0.100000,-0.100000)"
fill="#000000" stroke="none">
<path d="M6500 6379 c-312 -16 -464 -49 -944 -209 -180 -61 -403 -131 -495
-156 -1368 -375 -2069 -646 -2694 -1041 -65 -42 -119 -74 -121 -72 -1 2 -8 36
-15 74 -43 246 -225 394 -556 450 -89 15 -446 45 -537 45 l-48 0 0 -48 c0 -44
2 -48 33 -58 17 -6 39 -14 48 -18 12 -5 18 0 22 23 8 38 19 39 37 5 26 -48 57
-56 196 -48 131 7 179 -2 167 -33 -11 -28 -67 -45 -181 -54 -114 -10 -164 -25
-175 -54 -4 -8 -5 -15 -2 -15 2 0 39 -5 82 -11 88 -12 117 -24 109 -45 -11
-27 28 -14 66 23 61 60 61 31 1 -107 -215 -490 -286 -945 -202 -1301 15 -65
17 -92 9 -113 -28 -75 5 -166 61 -166 12 0 11 147 -2 352 -12 180 -3 313 26
380 l14 33 1 -40 c2 -203 36 -473 105 -836 47 -248 74 -350 108 -411 25 -47
37 -48 31 -5 -24 186 -40 286 -70 425 -19 89 -49 235 -68 325 -55 257 -70 375
-70 552 0 165 9 236 46 363 26 91 28 92 203 102 72 4 139 11 149 15 18 8 19 5
13 -39 -68 -491 -76 -1227 -21 -1771 55 -547 177 -1048 353 -1450 88 -199 78
-189 167 -182 67 6 74 5 84 -13 13 -25 -7 -36 -48 -25 -50 12 -92 17 -92 11 0
-12 51 -109 131 -248 78 -134 123 -227 116 -235 -6 -6 -134 185 -201 300 -79
134 -183 352 -254 532 -124 311 -271 808 -281 949 -5 59 -10 82 -23 90 -9 5
-20 7 -24 3 -14 -14 70 -414 142 -676 126 -454 294 -842 500 -1153 52 -78 94
-143 94 -146 0 -5 -114 6 -196 19 l-60 10 0 48 c1 41 -7 60 -52 132 -29 46
-80 138 -113 204 -62 123 -103 185 -120 185 -21 0 -6 -53 44 -156 30 -60 57
-122 61 -137 6 -26 5 -27 -13 -17 -30 15 -64 65 -114 165 -25 50 -55 99 -67
110 l-23 20 5 -55 c8 -104 90 -225 248 -370 l90 -82 -20 -29 c-18 -24 -69 -49
-102 -49 -5 0 -8 18 -8 40 0 36 -2 40 -25 40 -21 0 -25 -5 -25 -29 0 -44 -23
-58 -55 -32 -15 11 -47 23 -72 27 -25 4 -54 15 -64 25 -31 31 -23 99 12 99 24
0 24 -1 -5 51 -17 30 -28 74 -36 134 -13 101 -32 170 -56 196 -11 13 -18 51
-25 131 -22 287 -63 575 -138 975 -27 142 -72 378 -100 526 -31 160 -51 295
-51 337 0 100 -17 166 -52 204 l-29 31 6 -60 c12 -111 65 -447 145 -915 123
-720 166 -1027 194 -1390 21 -273 30 -598 17 -585 -12 12 -87 267 -140 480
-107 431 -191 888 -331 1795 -90 585 -108 688 -132 733 -20 41 -20 42 -3 190
10 83 15 174 12 202 -11 109 -67 156 -77 66 -3 -25 -10 -46 -16 -48 -17 -6
-80 70 -113 135 -16 32 -46 98 -65 147 -44 110 -96 189 -136 210 -37 19 -38
13 -4 -73 33 -82 83 -169 187 -327 116 -174 177 -315 177 -407 0 -26 -2 -28
-20 -18 -11 6 -42 42 -68 81 -94 140 -132 188 -153 200 -21 11 -22 10 -15 -22
10 -49 59 -151 121 -250 66 -103 92 -160 101 -219 l7 -45 -23 20 c-12 11 -49
57 -81 101 -62 86 -131 154 -137 136 -6 -18 47 -112 118 -212 126 -178 151
-228 165 -335 l6 -50 -58 61 c-139 147 -240 309 -461 739 -158 309 -310 581
-319 571 -13 -12 72 -221 186 -456 71 -146 140 -298 155 -337 23 -61 54 -105
184 -267 86 -108 181 -234 211 -282 58 -91 115 -230 125 -304 l6 -45 -41 45
c-69 77 -244 314 -325 442 -90 141 -243 439 -298 579 -36 92 -39 95 -66 91
-16 -2 -39 4 -56 15 -26 17 -28 17 -21 1 11 -30 36 -176 53 -308 11 -93 18
-282 24 -730 4 -333 14 -672 20 -753 15 -178 5 -270 -41 -367 -51 -109 -50
-249 2 -411 29 -92 95 -223 194 -389 115 -191 169 -295 191 -364 10 -31 21
-56 25 -56 4 0 29 -18 55 -40 27 -22 54 -40 61 -40 22 0 27 52 10 101 -19 53
-22 95 -7 104 6 4 25 -10 42 -29 33 -38 51 -47 41 -20 -3 9 0 54 7 101 l14 86
-35 31 c-162 143 -206 187 -264 259 -75 93 -146 230 -168 327 -20 84 -31 209
-22 249 7 31 8 30 49 -52 78 -152 159 -259 335 -440 96 -99 106 -106 113 -86
13 34 -20 80 -80 112 -36 19 -58 40 -71 65 -19 37 -43 69 -197 273 -91 119
-143 216 -150 280 l-5 44 61 -65 c33 -36 109 -132 167 -215 111 -156 214 -270
271 -299 19 -10 36 -15 38 -13 8 7 -106 155 -225 292 -161 186 -236 287 -286
389 -24 50 -42 92 -40 94 8 8 104 -69 155 -125 29 -32 98 -116 153 -188 96
-124 244 -282 254 -271 15 15 -83 152 -258 363 -131 157 -253 320 -284 382
-23 46 -23 95 0 121 10 11 22 20 26 20 5 0 40 -46 77 -103 192 -285 391 -526
643 -780 175 -175 189 -192 208 -249 24 -70 27 -118 9 -118 -24 0 -88 64 -176
175 -79 99 -174 186 -188 172 -3 -3 9 -33 26 -66 30 -56 86 -127 250 -316 70
-81 123 -180 118 -220 l-3 -27 -28 22 c-16 12 -68 75 -116 139 -129 171 -175
207 -250 199 -31 -3 -29 -5 78 -100 168 -149 287 -311 308 -418 6 -33 5 -34
-12 -20 -10 8 -87 94 -171 190 -242 279 -274 302 -193 141 48 -97 141 -199
331 -363 118 -102 257 -253 244 -265 -12 -13 -185 117 -326 246 -145 132 -284
240 -295 230 -9 -9 133 -160 277 -293 81 -75 163 -156 184 -181 35 -43 39 -45
88 -45 69 0 201 17 256 33 l45 13 -46 49 c-55 60 -89 108 -89 126 0 7 15 -1
32 -17 18 -17 55 -47 82 -69 67 -53 87 -89 84 -149 -1 -28 3 -51 9 -53 5 -2
29 12 53 32 23 19 43 35 45 35 1 0 32 -16 69 -35 56 -29 78 -35 129 -35 115 0
203 68 323 252 37 57 87 133 111 170 l43 66 123 -53 c226 -98 414 -155 612
-186 44 -7 109 -23 145 -37 422 -158 818 -216 1770 -257 195 -9 456 -22 579
-30 544 -36 1023 3 1491 121 266 67 663 217 705 268 11 13 55 70 97 127 43 57
119 159 170 226 52 67 114 161 140 210 55 104 103 251 95 290 -3 16 -26 87
-51 158 -60 174 -61 183 -14 200 92 31 123 75 172 239 19 64 47 140 64 168 26
47 34 54 72 60 50 9 79 27 152 94 l55 50 18 193 c18 199 16 354 -5 423 -6 20
-26 60 -45 88 l-34 50 112 94 c251 209 355 354 396 557 l12 55 74 13 c93 15
342 77 493 121 112 33 114 34 158 89 181 225 212 552 69 727 -70 85 -171 134
-380 185 -127 30 -285 92 -271 106 3 4 75 9 159 12 138 5 156 8 187 29 l35 24
-190 -6 c-192 -5 -352 4 -428 25 l-42 12 32 7 c18 4 49 20 69 36 71 56 74 58
74 41 0 -9 -5 -28 -12 -42 -8 -19 -8 -29 0 -37 20 -20 62 2 119 62 63 67 103
84 54 22 -17 -20 -33 -51 -37 -69 -5 -26 -3 -32 15 -38 35 -11 84 12 131 62
46 50 69 44 31 -8 -37 -49 -24 -66 38 -49 24 6 62 31 95 61 62 57 71 56 26 -1
-16 -21 -30 -40 -30 -43 0 -3 20 -9 44 -12 35 -6 52 -2 85 17 34 19 43 21 50
9 13 -21 4 -35 -29 -48 -17 -6 -30 -18 -30 -27 0 -14 11 -15 88 -9 133 12 602
8 732 -5 63 -7 261 -30 440 -52 389 -48 493 -57 727 -66 l178 -7 55 28 c95 47
218 134 284 200 85 85 121 158 121 245 0 76 -26 129 -95 195 l-42 40 7 -35 c4
-19 17 -55 27 -80 12 -26 21 -69 22 -104 1 -60 1 -60 -31 -67 -52 -10 -81 -35
-128 -109 -44 -69 -94 -113 -83 -74 13 45 12 49 -7 52 -13 2 -36 -13 -65 -43
-50 -51 -60 -55 -60 -21 0 38 -21 49 -63 31 -27 -11 -74 -15 -175 -15 -115 0
-144 -3 -175 -19 -41 -21 -42 -21 -25 25 9 26 9 36 -1 48 -18 22 -50 20 -75
-3 -12 -11 -30 -21 -41 -23 -17 -2 -20 3 -20 32 0 36 -10 60 -25 60 -5 0 -35
-22 -66 -50 -63 -55 -109 -70 -80 -25 18 28 21 80 5 90 -22 14 -56 -6 -78 -45
-20 -37 -62 -62 -78 -47 -3 4 6 29 21 56 14 28 26 65 26 82 0 30 -1 31 -32 25
-19 -4 -54 -28 -90 -62 -33 -31 -61 -54 -64 -51 -3 3 6 28 20 56 30 59 33 96
9 105 -13 5 -30 -8 -66 -48 -60 -69 -79 -73 -71 -13 5 32 -1 63 -25 131 -36
104 -39 147 -11 201 24 48 25 43 -2 47 -17 2 -24 12 -28 33 -4 24 -10 30 -29
30 -21 0 -28 -9 -42 -51 -10 -28 -23 -91 -29 -140 -16 -130 -43 -213 -84 -259
l-35 -40 0 35 c-1 19 6 53 14 75 20 57 19 85 -4 85 -31 0 -60 -31 -99 -105
-37 -68 -64 -96 -79 -82 -4 5 0 28 10 53 9 24 25 63 34 87 9 24 13 51 10 61
-12 30 -47 -2 -92 -83 -40 -72 -75 -108 -75 -77 0 9 12 45 27 81 14 36 23 68
19 72 -14 14 -61 -23 -93 -72 -62 -99 -118 -141 -83 -62 24 51 26 115 5 123
-39 15 -66 -6 -97 -74 -32 -71 -43 -83 -65 -75 -17 7 -16 41 2 73 8 14 14 37
15 53 0 23 -4 27 -28 27 -31 0 -64 -30 -101 -91 -28 -48 -49 -65 -62 -52 -7 7
-2 30 15 73 32 77 32 78 4 82 -50 8 -78 -12 -113 -82 -33 -66 -48 -80 -86 -80
-23 0 -23 2 0 48 22 44 35 108 23 116 -17 10 -55 -21 -80 -68 -15 -27 -38 -56
-51 -65 -24 -15 -24 -15 -19 14 3 17 12 45 19 63 12 28 12 34 -1 42 -22 14
-50 2 -92 -38 -41 -39 -58 -37 -40 3 7 14 12 44 12 65 0 52 -23 53 -70 5 -19
-19 -37 -35 -41 -35 -4 0 -5 18 -2 40 5 37 4 40 -19 40 -14 0 -42 -11 -62 -25
-46 -31 -60 -32 -52 -2 4 12 10 41 13 63 5 36 2 43 -14 48 -41 13 -62 -11 -79
-89 -10 -48 -32 -75 -60 -75 -20 0 -24 4 -20 18 25 79 39 173 40 257 1 89 -2
105 -24 145 -14 25 -32 45 -39 45 -8 0 -41 -47 -72 -105 -160 -291 -230 -385
-329 -439 l-43 -24 56 66 c30 36 71 91 91 121 44 69 179 336 173 343 -3 2 -17
1 -32 -3 -51 -13 -100 -76 -169 -217 -49 -100 -76 -144 -103 -166 -36 -30 -63
-40 -63 -23 0 4 21 43 46 87 95 164 97 233 6 151 -21 -19 -60 -76 -88 -126
-27 -51 -63 -108 -81 -129 -30 -33 -32 -34 -33 -13 0 23 9 45 74 165 40 77 45
107 18 107 -23 0 -54 -33 -80 -86 -32 -62 -71 -67 -72 -9 0 29 -28 65 -50 65
-12 0 -37 -29 -73 -84 -31 -46 -69 -93 -86 -105 -17 -13 -31 -20 -31 -18 0 2
16 34 35 71 19 37 35 79 35 93 0 24 -2 25 -37 20 -31 -5 -50 -19 -100 -73 -65
-70 -82 -69 -38 1 28 45 34 105 10 105 -46 0 -79 -36 -146 -158 -21 -38 -60
-64 -75 -49 -3 2 9 26 25 53 34 52 40 104 16 124 -22 18 -40 7 -92 -61 -41
-52 -103 -103 -103 -84 0 4 14 26 31 51 30 44 59 104 59 124 0 5 -8 10 -17 10
-10 -1 -57 12 -104 27 l-87 28 5 31 c4 24 0 36 -18 53 -29 27 -32 27 -70 -7
-21 -19 -39 -52 -57 -106 -15 -44 -32 -81 -38 -83 -7 -2 -20 16 -29 41 -20 52
-40 73 -75 78 -25 3 -25 2 -25 -73 0 -160 -71 -143 -203 49 -58 85 -127 158
-171 181 -19 11 -21 9 -21 -17 0 -15 20 -61 45 -102 24 -41 45 -87 45 -103 l0
-28 -32 17 c-18 9 -56 33 -83 54 -28 20 -65 45 -83 54 l-32 17 0 -27 c0 -14
14 -57 31 -96 17 -38 28 -73 24 -76 -3 -3 -20 0 -38 7 -55 23 -87 25 -87 7 0
-9 5 -25 12 -36 18 -28 3 -36 -45 -21 -261 79 -442 109 -717 118 -169 6 -396
-7 -485 -27 -22 -5 -41 -7 -44 -5 -9 10 32 44 100 81 65 35 116 80 104 92 -13
13 -172 -53 -375 -154 -237 -119 -330 -160 -330 -145 0 16 80 75 195 145 106
65 170 114 160 124 -8 9 -249 -116 -334 -173 -284 -191 -554 -488 -736 -810
l-28 -50 38 35 c20 19 99 105 175 190 146 165 242 260 312 308 71 49 150 93
156 88 3 -3 -67 -77 -155 -163 -208 -205 -267 -279 -304 -381 -8 -23 -3 -20
32 18 232 249 291 311 362 377 84 77 171 143 242 184 29 16 7 -10 -79 -92
-191 -183 -439 -469 -422 -487 16 -15 167 128 371 352 105 116 193 192 276
236 32 17 59 29 59 27 0 -2 -70 -73 -156 -158 -151 -150 -262 -283 -320 -384
l-29 -50 35 25 c19 14 141 131 270 261 154 154 259 251 305 281 67 44 144 82
151 75 2 -2 -27 -29 -64 -59 -106 -89 -322 -314 -400 -418 -39 -52 -69 -96
-67 -99 8 -8 119 96 221 207 177 194 271 275 387 333 65 33 71 52 30 86 l-28
22 28 1 c30 0 91 -22 101 -38 3 -5 -33 -35 -81 -67 -144 -96 -306 -267 -373
-394 -11 -22 -10 -22 32 7 23 16 97 80 163 142 157 147 221 201 289 241 34 21
56 41 56 52 0 26 45 67 73 67 13 0 32 -9 41 -19 18 -20 15 -41 -6 -41 -28 0
-183 -118 -254 -193 -90 -96 -239 -297 -219 -297 4 0 91 83 194 184 171 168
260 241 326 266 31 12 32 33 4 59 -36 34 -14 40 63 20 268 -70 633 -129 1418
-229 694 -88 873 -115 1130 -166 238 -48 317 -72 429 -131 130 -69 202 -114
261 -163 43 -36 49 -37 145 -44 132 -9 264 -32 348 -61 66 -23 167 -80 167
-95 0 -4 -26 -1 -58 6 -31 7 -149 27 -262 43 -112 17 -238 41 -279 53 l-74 22
-41 -24 c-138 -79 -213 -192 -231 -347 l-7 -62 35 -14 c37 -16 72 -57 105
-122 27 -53 53 -76 137 -118 199 -99 411 -138 576 -107 78 15 171 62 219 110
51 51 98 149 107 218 7 63 23 58 23 -6 0 -242 -214 -426 -474 -409 -62 4 -78
1 -131 -24 -253 -117 -506 -87 -1232 146 -7 3 -13 17 -13 32 0 19 -10 36 -32
55 -31 25 -32 27 -13 33 77 26 167 80 213 129 29 30 52 60 52 65 0 16 -47 13
-83 -5 -17 -9 -67 -41 -112 -70 -81 -54 -152 -81 -143 -54 2 8 47 44 99 80 82
58 139 115 139 141 0 21 -51 6 -102 -31 -66 -47 -100 -61 -118 -50 -23 14 6
38 96 80 75 34 104 60 104 89 0 24 -49 8 -119 -39 -86 -59 -101 -56 -101 20 0
34 5 52 20 65 16 14 17 20 8 26 -7 5 -13 25 -13 45 0 90 -54 27 -80 -95 -18
-81 -39 -131 -55 -131 -6 0 -10 39 -10 93 -1 109 -15 296 -24 304 -3 4 -17 -4
-30 -17 -28 -25 -46 -93 -47 -173 0 -29 -3 -70 -7 -92 -8 -41 -10 -42 -62 -30
-24 6 -26 4 -38 -53 -14 -69 -69 -140 -133 -173 -52 -26 -51 -12 11 84 57 89
83 137 78 143 -2 2 -29 -17 -60 -41 -83 -65 -163 -178 -182 -257 -8 -33 -6
-34 36 -8 38 23 86 26 113 6 18 -13 17 -14 -6 -29 -39 -25 -122 -55 -190 -68
-38 -7 -174 -13 -339 -14 l-275 -1 -140 -43 c-164 -49 -214 -52 -312 -21 -71
23 -74 23 -110 6 -46 -22 -33 -33 51 -42 40 -5 66 -14 85 -30 l26 -24 -35 6
c-156 25 -321 67 -650 165 -129 39 -247 74 -262 79 -80 26 23 -76 108 -107
169 -61 206 -76 226 -94 l23 -20 -45 7 c-65 9 -204 51 -282 84 -38 15 -68 25
-68 22 0 -19 44 -75 72 -92 42 -26 82 -37 226 -60 145 -24 192 -37 199 -55 8
-22 -39 -95 -91 -143 -58 -54 -96 -58 -41 -5 38 37 74 103 75 136 0 26 -43 21
-79 -9 -22 -18 -40 -24 -62 -22 -27 3 -32 -1 -44 -34 -17 -52 -43 -88 -60 -88
-24 0 -17 34 15 75 45 57 40 91 -11 73 -28 -10 -43 -34 -94 -156 -21 -49 -55
-76 -55 -44 0 11 11 50 25 86 14 37 25 79 25 94 -1 26 -1 26 -16 7 -43 -56
-273 -570 -260 -582 3 -3 19 3 37 13 33 19 59 62 105 171 25 59 74 121 74 94
0 -28 -63 -199 -92 -251 -53 -95 -153 -210 -182 -210 -10 0 8 36 36 70 29 36
34 55 19 79 -15 24 -57 -12 -90 -78 -26 -50 -55 -80 -67 -68 -2 2 9 24 26 50
29 47 33 58 31 90 -4 66 -117 -73 -246 -303 -32 -58 -75 -130 -96 -161 -45
-67 -137 -153 -179 -167 -39 -14 -42 -19 88 142 168 208 228 311 247 424 4 23
3 42 -2 42 -4 -1 -35 -44 -67 -98 -159 -259 -230 -358 -317 -444 -89 -89 -144
-123 -72 -45 21 23 67 93 101 155 39 69 94 147 143 204 82 95 110 150 92 183
-9 15 -29 -8 -123 -141 -139 -195 -223 -303 -286 -369 -53 -55 -122 -110 -129
-104 -2 3 55 74 126 159 149 177 229 291 264 379 14 33 25 64 25 68 0 20 -121
-115 -195 -218 -78 -108 -202 -239 -227 -239 -6 0 1 15 14 33 114 149 209 316
358 628 62 129 123 255 136 281 13 27 20 48 16 48 -23 0 -101 -74 -131 -124
-19 -31 -56 -120 -83 -198 -87 -252 -161 -364 -430 -656 -43 -46 -78 -88 -78
-93 0 -5 9 -18 21 -30 11 -11 19 -22 17 -24 -7 -7 -167 -68 -238 -91 -283 -91
-602 -131 -840 -105 -115 13 -276 44 -288 56 -4 4 26 5 67 3 l74 -4 79 96
c184 221 365 474 502 702 42 70 76 130 76 133 0 4 -20 -8 -44 -25 -54 -39
-105 -107 -197 -262 -39 -66 -93 -143 -121 -171 -28 -29 -66 -80 -84 -115 -18
-35 -47 -74 -66 -88 -18 -14 -60 -57 -93 -96 -68 -81 -96 -104 -143 -117 -24
-7 -31 -7 -26 2 12 21 76 99 165 202 129 150 186 230 238 336 31 63 61 108 86
130 59 52 115 145 115 190 0 21 -4 40 -9 43 -4 3 -61 -74 -126 -172 -144 -217
-196 -289 -301 -417 -111 -135 -220 -236 -298 -276 -23 -12 -28 -19 109 131
37 41 92 107 121 145 54 72 124 206 124 237 0 11 -44 -36 -101 -108 -97 -120
-337 -370 -346 -360 -6 5 35 60 237 316 163 207 248 323 309 422 56 93 113
208 103 208 -19 0 -172 -188 -301 -368 -73 -103 -155 -215 -182 -248 -54 -68
-228 -238 -236 -230 -3 2 40 69 95 148 93 133 172 273 172 306 0 23 -19 3 -91
-94 -76 -103 -131 -160 -161 -170 -34 -11 -32 5 8 48 95 104 183 233 384 563
80 132 155 253 166 270 l19 30 -37 -28 c-75 -58 -165 -181 -298 -407 -142
-243 -242 -370 -327 -413 -27 -15 -21 -2 61 121 160 242 289 488 554 1063 189
408 238 510 330 684 212 397 446 701 682 883 122 94 123 94 34 1 -385 -402
-668 -853 -923 -1469 -28 -68 -49 -125 -47 -127 11 -11 184 280 431 727 204
369 341 566 515 740 114 115 204 186 314 249 112 64 118 60 21 -16 -301 -235
-567 -563 -810 -998 -77 -138 -185 -352 -185 -368 0 -15 44 4 73 31 18 17 35
51 48 97 66 226 385 673 695 975 177 172 313 279 474 373 43 25 131 65 120 54
-3 -2 -59 -45 -125 -95 -241 -180 -496 -421 -649 -612 -132 -164 -332 -490
-361 -590 -15 -48 355 416 510 640 84 121 136 180 255 288 396 359 874 598
1410 706 249 50 356 60 655 60 255 0 302 -3 525 -31 135 -18 281 -34 325 -37
101 -7 257 7 355 33 l76 20 64 -20 c119 -37 245 -49 600 -59 357 -10 417 -16
533 -60 l59 -22 23 22 c23 21 23 21 131 6 60 -9 231 -30 379 -46 538 -61 770
-109 994 -204 l77 -34 145 11 c409 29 988 -64 1417 -228 61 -23 112 -39 112
-34 0 18 -63 79 -103 98 -23 11 -91 32 -152 46 -128 30 -176 47 -219 79 -20
16 -52 26 -91 30 -121 14 -481 77 -806 141 -780 154 -1092 198 -1494 211
l-200 7 -65 33 c-56 29 -81 35 -185 44 -66 6 -428 15 -805 20 -377 5 -759 14
-850 19 -235 15 -725 31 -855 29 -60 0 -189 -5 -285 -9z m2799 -756 c-14 -76
-58 -150 -133 -225 -38 -38 -78 -74 -89 -79 -23 -13 -26 -19 54 101 56 84 158
276 160 302 1 7 5 -2 9 -19 4 -18 3 -54 -1 -80z m-5049 51 c0 -19 -29 -53
-116 -137 -346 -332 -543 -675 -932 -1627 -110 -268 -137 -326 -184 -388 -30
-40 -90 -134 -133 -210 -110 -191 -179 -293 -244 -360 -53 -55 -121 -110 -121
-98 0 3 27 43 61 88 128 173 233 370 481 903 165 356 255 527 364 691 54 82
83 138 110 215 93 268 248 518 453 733 88 92 242 227 252 220 5 -3 9 -16 9
-30z m-299 -131 c-11 -21 -39 -61 -63 -90 -128 -153 -161 -197 -218 -288 -35
-55 -78 -119 -98 -143 -34 -43 -108 -99 -117 -90 -15 14 66 184 131 275 24 34
118 140 209 235 91 95 166 177 166 183 1 5 4 -2 6 -17 2 -15 -5 -44 -16 -65z
m1604 57 c-11 -17 -58 -37 -103 -43 -51 -6 -47 7 12 34 44 20 101 26 91 9z
m3074 -64 c20 -24 -47 -116 -83 -116 -12 0 -5 26 14 50 11 14 20 37 20 53 0
30 28 38 49 13z m-4906 -38 c-4 -7 -51 -78 -104 -158 -242 -366 -488 -857
-750 -1500 -49 -118 -87 -216 -85 -218 7 -6 105 157 158 263 31 61 104 223
163 360 124 290 204 448 283 560 l57 80 3 -34 c5 -52 -42 -189 -128 -371 -43
-91 -131 -277 -195 -415 -212 -455 -381 -760 -534 -965 -75 -102 -201 -247
-201 -234 0 12 47 90 150 249 53 83 112 179 132 215 40 73 92 200 85 207 -10
9 -130 -168 -236 -347 -231 -389 -307 -503 -409 -617 -47 -52 -42 -44 42 82
198 295 353 597 636 1235 326 737 534 1122 763 1415 98 124 203 244 170 193z
m-231 -115 c-56 -109 -160 -287 -300 -510 -110 -175 -130 -214 -252 -504 -415
-982 -615 -1363 -901 -1711 -40 -48 -76 -88 -80 -88 -12 0 -22 47 -15 65 3 8
24 24 48 35 35 16 54 37 99 108 136 210 301 533 472 922 274 624 329 745 428
940 118 235 232 431 340 582 74 104 191 249 197 243 2 -1 -15 -38 -36 -82z
m5763 -13 c-10 -19 -14 -42 -11 -56 5 -20 2 -26 -18 -34 -14 -5 -31 -18 -38
-30 -19 -29 -31 -25 -25 10 8 37 101 176 105 156 2 -8 -4 -29 -13 -46z m-5963
-74 c-16 -35 -61 -110 -99 -167 -103 -154 -142 -223 -164 -286 -11 -31 -42
-93 -70 -138 -76 -128 -207 -407 -314 -670 -292 -722 -415 -955 -614 -1165
l-52 -55 44 71 c144 230 256 464 502 1054 261 625 391 890 567 1152 79 119
221 294 226 279 2 -6 -10 -40 -26 -75z m-178 -52 c7 -19 1 -30 -79 -153 -264
-403 -547 -1005 -790 -1681 -51 -142 -73 -190 -92 -204 -14 -11 -41 -52 -59
-92 -19 -40 -48 -84 -65 -98 -32 -27 -49 -33 -49 -16 0 13 208 519 348 846
145 338 266 607 412 915 90 189 104 226 82 208 -68 -53 -126 -152 -245 -415
-35 -78 -107 -220 -160 -315 -128 -233 -154 -295 -171 -421 -17 -120 -47 -209
-121 -363 -52 -108 -146 -248 -152 -228 -9 27 166 541 274 803 91 223 297 632
400 795 105 167 244 356 258 351 17 -6 6 -47 -25 -89 -16 -22 -28 -42 -26 -45
8 -7 61 26 87 55 14 15 41 51 60 78 58 87 97 111 113 69z m-1127 -94 c17 -34
10 -36 -31 -10 -40 24 -76 66 -76 86 0 20 92 -46 107 -76z m84 -152 c15 -28
29 -118 23 -144 -5 -19 -9 -22 -24 -14 -22 12 -36 54 -44 132 -3 31 -9 65 -13
75 -5 14 0 13 21 -7 15 -14 32 -33 37 -42z m636 35 c-62 -103 -270 -487 -362
-668 -213 -420 -348 -773 -426 -1112 -13 -57 -27 -103 -32 -103 -4 0 -13 11
-19 25 -9 19 -9 44 0 97 6 43 7 80 2 94 -9 24 -7 27 34 49 13 7 27 39 43 95
136 482 316 896 535 1227 70 106 216 303 225 303 2 0 2 -3 0 -7z m-253 -199
c-27 -60 -79 -170 -117 -244 -288 -562 -335 -662 -407 -873 -36 -108 -50 -124
-50 -57 0 58 27 145 90 295 71 167 102 255 90 255 -27 0 -71 -57 -101 -132
-39 -101 -67 -144 -82 -129 -7 7 -6 23 3 51 10 29 10 44 3 51 -8 8 -2 21 22
45 19 18 49 66 68 106 31 65 122 303 142 368 l7 25 -27 -25 c-15 -14 -49 -72
-77 -130 -97 -203 -111 -229 -130 -247 -20 -18 -20 -17 -13 32 7 51 45 137
115 260 42 74 76 162 66 172 -14 15 -57 -20 -80 -64 -25 -48 -25 -48 -26 -16
0 48 41 88 143 138 50 24 93 42 95 40 2 -2 -6 -20 -18 -39 -43 -71 41 -21 99
58 22 30 45 57 50 61 29 17 -58 -165 -179 -375 -42 -74 -85 -150 -94 -168 -16
-32 -16 -33 1 -23 59 32 139 147 253 366 96 184 184 324 196 312 3 -3 -16 -53
-42 -113z m7479 -189 c166 -41 170 -43 111 -44 -45 -1 -100 10 -200 39 -76 22
-147 40 -156 40 -9 0 -20 5 -24 11 -10 17 74 3 269 -46z m-196 -19 c73 -22
429 -156 463 -175 34 -18 11 -174 -28 -188 -8 -4 -43 1 -78 10 -70 19 -124 22
-124 7 0 -15 41 -37 85 -45 51 -9 75 -22 75 -40 0 -40 -174 10 -597 174 -87
33 -149 51 -180 52 -27 1 -61 4 -78 8 -28 7 -28 7 17 15 27 4 81 4 120 1 l73
-6 -27 24 c-14 14 -48 33 -75 43 -26 9 -52 21 -57 26 -12 10 47 73 86 94 75
39 194 39 325 0z m-1597 -251 c18 -22 4 -63 -30 -84 -17 -10 -27 -21 -23 -24
3 -4 39 -7 80 -7 72 0 86 -7 60 -29 -15 -12 -69 -16 -170 -13 l-69 2 36 48
c20 26 47 64 59 84 24 41 38 46 57 23z m1444 -82 c33 -8 125 -38 205 -67 150
-55 195 -69 245 -81 56 -12 18 -15 -55 -5 -61 10 -483 139 -554 170 -30 13 89
1 159 -17z m231 -160 c73 -32 87 -43 54 -43 -37 0 -225 66 -208 73 24 11 91
-3 154 -30z m-1420 -132 c22 -10 51 -30 64 -45 l24 -26 -47 16 c-59 20 -164
15 -218 -12 -21 -10 -38 -21 -38 -24 0 -9 112 -60 227 -104 50 -19 110 -44
133 -56 45 -23 61 -20 44 8 -17 27 -70 59 -147 88 -92 34 -102 44 -46 44 63 0
137 -24 251 -81 54 -27 99 -49 102 -49 13 0 14 36 1 56 -17 27 -14 28 35 14
60 -17 207 -41 438 -70 123 -15 226 -30 229 -34 10 -10 -17 -148 -41 -208 -40
-98 -87 -169 -171 -253 -141 -143 -338 -256 -730 -418 -99 -41 -220 -97 -268
-125 -60 -34 -107 -53 -149 -61 -34 -6 -64 -8 -67 -6 -11 12 28 60 101 126 73
66 117 123 104 136 -10 11 -93 -47 -181 -126 -102 -91 -171 -131 -228 -131
-54 0 -45 9 116 119 135 92 185 137 231 205 65 97 5 66 -157 -82 -130 -119
-215 -176 -290 -197 -106 -28 -111 -15 -17 38 135 75 214 139 390 315 137 137
162 165 148 173 -41 23 -114 -32 -137 -104 -7 -19 -18 -38 -25 -40 -8 -3 -79
-55 -159 -116 -80 -61 -177 -130 -214 -155 -83 -53 -173 -99 -173 -88 0 16 88
92 195 167 103 72 215 170 215 187 0 4 -8 8 -17 8 -37 0 -121 -51 -208 -125
-49 -42 -106 -85 -127 -96 -41 -21 -118 -36 -118 -23 1 5 42 37 93 71 93 63
227 177 227 194 0 13 -37 11 -63 -3 -12 -6 -44 -31 -70 -54 -53 -47 -120 -75
-138 -57 -11 11 12 33 81 76 26 17 36 31 38 55 3 27 0 32 -17 32 -11 0 -30
-13 -43 -30 -22 -30 -22 -30 -42 -11 -28 27 -118 67 -190 85 -102 27 -214 38
-425 42 -216 3 -234 8 -207 49 7 11 26 28 42 37 28 16 33 16 109 -7 44 -12
154 -33 245 -45 195 -25 296 -45 364 -70 58 -23 67 -20 146 54 31 28 65 56 75
63 17 10 18 13 5 23 -21 15 -60 3 -92 -28 -26 -24 -28 -24 -28 -6 0 11 16 35
35 54 42 40 44 57 9 66 -18 5 -43 -2 -85 -24 -59 -31 -89 -33 -89 -6 0 8 18
25 40 39 48 30 53 49 10 33 -17 -5 -67 -8 -113 -6 -97 4 -177 36 -177 70 0 16
5 19 24 14 26 -6 56 17 36 29 -15 9 -68 -4 -122 -31 -46 -23 -88 -31 -101 -18
-4 4 2 19 13 34 24 34 25 44 4 36 -9 -4 -68 -20 -132 -36 -63 -17 -137 -42
-164 -57 -49 -26 -98 -84 -112 -130 -9 -28 -22 -29 -36 -3 -15 28 8 67 67 112
26 20 59 48 72 62 l24 26 -24 0 c-109 -1 -245 -171 -284 -355 -22 -105 -17
-173 21 -280 4 -11 -5 -4 -20 15 -54 71 -71 197 -41 315 26 104 100 238 178
321 38 41 82 82 98 89 15 8 74 22 131 31 137 22 411 15 546 -15 254 -54 492
-171 620 -304 l33 -34 -113 -94 -113 -94 48 -3 c35 -2 57 2 81 18 37 22 106
94 106 110 0 6 7 10 15 10 22 0 18 -40 -7 -67 -12 -13 -18 -26 -15 -30 11 -10
42 9 97 60 61 58 60 71 -8 134 -39 36 -43 43 -28 49 13 5 27 -3 52 -30 57 -62
99 -37 57 34 -17 29 -34 40 -135 84 -39 17 -61 33 -72 55 -30 58 -19 64 36 20
58 -45 144 -91 201 -107 40 -11 45 -6 26 31 -37 72 -101 103 -267 132 -56 10
-110 24 -120 31 -15 11 -13 17 22 68 128 187 353 291 491 227z m-2111 -218
c-4 -16 -23 -66 -42 -112 l-35 -83 -16 26 c-20 33 -35 33 -47 -1 l-10 -28 -13
23 c-7 13 -10 30 -7 37 2 7 37 39 77 71 39 31 74 65 76 75 3 11 9 19 14 19 5
0 6 -12 3 -27z m76 -165 c-23 -90 -74 -208 -108 -248 l-21 -25 0 30 c0 17 6
41 14 55 26 46 11 56 -26 18 l-22 -23 7 43 c7 45 33 106 69 155 21 30 97 90
104 83 3 -2 -5 -42 -17 -88z m-346 -115 c-37 -93 -59 -133 -74 -133 -16 0 -12
34 10 81 11 24 20 63 20 86 0 35 3 42 23 46 58 11 57 13 21 -80z m-5484 -153
c254 -445 426 -688 575 -815 40 -35 58 -59 79 -113 28 -70 32 -132 8 -140 -20
-6 -192 176 -289 306 -49 65 -156 221 -238 346 -82 126 -151 224 -152 219 -5
-14 63 -178 104 -253 89 -161 312 -454 512 -672 95 -104 137 -176 148 -255 l6
-47 -34 24 c-63 44 -255 244 -330 345 -42 55 -132 183 -201 285 -69 102 -153
221 -187 265 -58 75 -61 82 -61 135 0 30 -5 75 -11 99 -14 63 -2 131 23 131
24 0 23 4 -38 157 -41 103 -70 232 -47 208 5 -5 65 -107 133 -225z m5595 117
c-36 -78 -41 -117 -20 -160 l17 -36 -75 -83 c-41 -46 -87 -96 -101 -113 l-27
-30 7 40 c13 90 46 166 90 213 34 35 42 50 38 69 -10 37 4 71 48 119 22 24 43
43 45 41 2 -2 -8 -29 -22 -60z m-255 45 c0 -4 -18 -54 -39 -111 -26 -68 -51
-115 -72 -137 -28 -29 -59 -44 -59 -29 0 2 23 53 50 113 28 60 50 112 50 115
0 3 4 17 10 31 7 19 17 26 35 26 14 0 25 -4 25 -8z m1292 -78 c131 -27 195
-56 218 -98 7 -14 11 -28 9 -30 -2 -2 -69 5 -149 15 -80 10 -182 20 -228 21
-66 3 -82 6 -80 18 2 8 23 22 48 30 39 14 45 20 45 43 -1 15 3 27 7 27 4 0 63
-12 130 -26z m-1279 -257 c-3 -50 -49 -134 -123 -227 -64 -81 -71 -99 -40
-107 28 -7 25 -16 -20 -57 -33 -29 -166 -106 -185 -106 -15 0 2 27 70 111 87
105 102 129 83 129 -27 0 -80 -42 -111 -87 -39 -58 -91 -113 -106 -113 -24 0
-8 41 52 130 55 82 62 99 63 144 1 28 2 56 3 63 0 6 27 21 58 33 32 12 64 26
71 32 9 8 16 8 24 0 8 -8 2 -24 -21 -60 -40 -63 -40 -77 -1 -57 48 25 72 71
67 128 -3 36 -1 47 10 47 8 0 27 9 41 20 14 12 35 20 46 18 18 -3 21 -9 19
-41z m1050 12 c130 -22 355 -41 370 -32 6 3 7 1 3 -5 -24 -40 -339 -41 -474
-3 -41 12 -95 33 -120 47 l-47 25 75 -6 c41 -3 128 -14 193 -26z m-882 -107
c-6 -11 -32 -36 -58 -55 -66 -49 -103 -89 -112 -123 -6 -25 -13 -29 -49 -32
-33 -3 -42 0 -42 13 0 25 47 66 125 112 39 23 85 57 104 77 37 38 50 41 32 8z
m909 8 c192 -21 430 -64 420 -74 -23 -23 -275 -11 -467 22 -99 18 -196 32
-214 32 -37 0 -29 16 11 23 46 8 164 7 250 -3z m-1594 -102 c-17 -131 -99
-242 -307 -415 l-33 -28 33 60 c66 118 291 435 308 435 3 0 2 -24 -1 -52z
m107 -70 c-23 -46 -63 -114 -90 -153 -56 -78 -143 -178 -150 -171 -7 7 93 207
136 272 42 63 128 150 138 140 3 -3 -12 -43 -34 -88z m1577 52 c113 -16 227
-30 254 -30 48 0 49 0 31 -20 -21 -23 -90 -46 -168 -55 -67 -8 -239 4 -232 15
5 8 25 12 128 25 56 7 63 25 10 25 -39 0 -410 38 -428 44 -5 2 6 8 25 14 61
18 168 13 380 -18z m1944 -102 c9 -12 25 -51 37 -86 21 -63 37 -86 74 -107 16
-10 15 -14 -13 -58 -17 -26 -60 -119 -97 -205 -77 -178 -130 -288 -145 -297
-14 -9 -48 12 -55 35 -9 28 -29 25 -66 -8 -26 -23 -32 -38 -37 -80 -4 -49 -6
-52 -22 -37 -28 25 -49 17 -82 -30 -35 -50 -42 -53 -57 -27 -18 31 -33 -2 -41
-86 -8 -89 -13 -102 -42 -102 -14 0 -18 5 -14 15 8 22 -5 135 -15 135 -25 0
-48 -43 -59 -109 -6 -39 -16 -73 -20 -76 -12 -7 -30 27 -30 57 -1 13 -7 34
-14 48 l-14 25 -16 -35 c-8 -19 -25 -68 -36 -109 -26 -90 -45 -84 -45 16 0 51
-4 68 -17 76 -29 19 -55 -17 -73 -98 -9 -41 -22 -81 -29 -91 -23 -30 -37 -7
-34 54 3 55 2 57 -21 57 -19 0 -31 -11 -51 -45 -17 -29 -34 -46 -50 -48 -19
-3 -21 -1 -15 15 5 10 10 36 13 57 4 34 2 38 -13 33 -9 -4 -21 -7 -26 -7 -13
0 -36 -50 -44 -97 -4 -26 -12 -43 -20 -43 -22 0 -25 15 -13 48 9 24 9 34 -1
46 -18 21 -44 6 -76 -44 -14 -22 -30 -40 -35 -40 -13 0 -13 36 0 61 9 17 7 19
-19 19 -20 0 -37 -9 -56 -31 -14 -17 -29 -29 -32 -25 -3 3 0 13 7 21 16 19 -1
65 -25 65 -20 0 -19 8 10 55 31 51 31 73 0 87 -31 14 -48 1 -80 -61 -22 -45
-65 -93 -65 -75 0 25 32 128 45 147 21 30 19 34 -20 41 -19 4 -35 9 -35 11 0
2 20 35 44 72 48 75 106 187 136 263 15 39 17 50 6 50 -31 0 -65 -42 -87 -107
-23 -69 -56 -113 -85 -113 -24 0 -13 57 38 192 22 60 38 111 35 114 -10 10
-63 -25 -104 -68 -55 -60 -88 -119 -139 -251 l-45 -111 23 -18 c22 -17 24 -17
39 2 9 10 19 38 23 61 4 23 11 50 17 61 10 18 57 43 66 34 2 -2 -7 -26 -20
-53 -13 -26 -45 -102 -71 -169 -25 -66 -60 -142 -76 -167 -16 -26 -28 -47 -25
-47 22 0 61 32 86 72 43 66 99 109 99 76 0 -6 -18 -39 -40 -73 -22 -33 -43
-76 -46 -94 -6 -30 -5 -33 17 -29 14 2 34 18 48 41 17 25 28 34 35 27 5 -5 18
-10 28 -10 23 0 23 -9 -3 -36 -31 -33 -16 -44 57 -44 36 0 63 -4 60 -9 -8 -13
-90 -23 -182 -22 -106 0 -198 20 -402 86 -229 73 -281 85 -397 95 l-100 8 140
-2 c119 -1 145 2 168 16 35 24 37 23 37 -12 0 -36 15 -38 68 -11 43 22 66 46
112 116 18 28 46 64 63 82 29 31 30 33 13 58 -24 37 -58 30 -72 -14 -7 -22
-14 -30 -19 -22 -4 7 1 30 10 52 15 32 23 39 47 39 44 0 83 25 104 67 21 45
32 163 15 163 -15 0 -47 -54 -67 -114 -14 -41 -18 -46 -26 -31 -17 29 -1 84
42 149 47 73 51 96 16 96 -48 0 -104 -94 -129 -217 l-13 -67 -23 23 c-31 31
-24 69 29 156 23 38 44 83 47 102 7 42 32 56 145 83 188 45 423 45 593 -1 130
-35 123 -34 141 -3 17 29 17 29 128 31 233 3 430 76 791 292 83 49 155 90 162
90 6 1 19 -9 27 -21z m-6648 -89 c-11 -66 -58 -147 -166 -283 -55 -71 -112
-148 -126 -172 -14 -24 -30 -44 -34 -44 -5 0 -10 21 -12 48 -3 46 -1 49 62
118 36 39 112 139 170 222 58 84 107 152 109 152 2 0 1 -18 -3 -41z m4973 5
c1 -1 -17 -9 -40 -16 -98 -29 -549 -10 -549 24 0 9 578 1 589 -8z m-4870 -43
c-23 -103 -106 -227 -246 -370 l-105 -106 34 63 c18 34 75 118 126 185 51 67
116 157 145 199 28 43 52 76 53 75 2 -1 -1 -22 -7 -46z m3565 -76 c-70 -47
-132 -85 -137 -85 -5 0 17 29 48 64 62 72 121 106 178 106 38 0 36 -2 -89 -85z
m-5329 -150 c57 -71 158 -200 225 -285 143 -184 292 -353 360 -410 l50 -41 -6
-57 c-6 -53 -4 -60 26 -97 17 -22 27 -41 21 -43 -20 -7 -72 40 -133 121 -77
101 -123 144 -168 158 -29 9 -42 23 -78 87 -23 43 -97 145 -163 227 -198 245
-263 347 -310 484 -40 116 -17 97 176 -144z m5953 179 c2 -16 -3 -38 -11 -48
-13 -18 -19 -18 -72 -8 -112 23 -315 10 -315 -20 0 -17 53 -28 134 -28 119 0
166 -21 166 -75 0 -12 -4 -14 -19 -5 -11 5 -81 19 -157 30 -92 13 -148 26
-172 40 -40 24 -72 18 -128 -25 -39 -30 -44 -31 -44 -7 0 24 22 43 88 76 31
16 61 39 70 56 10 18 23 28 32 25 44 -12 218 -27 279 -23 53 3 77 9 98 25 35
27 47 24 51 -13z m-4127 -60 c-76 -198 -253 -432 -390 -518 -46 -29 -71 -28
-71 3 0 14 13 24 43 36 35 13 54 33 112 113 237 331 328 453 332 449 2 -3 -10
-40 -26 -83z m139 -40 c0 -34 -20 -68 -95 -160 -52 -63 -75 -109 -75 -148 0
-16 -7 -27 -21 -31 -38 -12 -101 -78 -154 -160 -54 -83 -103 -141 -111 -132
-8 8 26 99 61 162 33 59 55 91 212 296 44 58 98 135 119 172 34 58 41 64 52
50 6 -9 12 -31 12 -49z m4253 36 c34 -16 34 -28 2 -36 -15 -4 -62 6 -122 25
l-98 31 95 -3 c52 -2 107 -10 123 -17z m-396 -156 c103 -21 173 -54 233 -110
45 -42 83 -114 68 -129 -4 -5 -654 155 -690 170 -59 24 55 33 171 14 41 -6 68
-6 74 0 12 12 -16 27 -71 36 -24 4 -40 11 -35 15 23 22 151 25 250 4z m-3821
-87 c-28 -94 -85 -174 -251 -348 -139 -146 -160 -165 -163 -145 -5 35 16 69
102 169 83 95 106 133 106 171 0 19 10 30 41 48 26 14 64 54 107 113 55 74 67
86 70 67 2 -12 -4 -46 -12 -75z m3134 61 c0 -18 -5 -89 -11 -158 -11 -120 -7
-177 16 -232 13 -32 -10 -18 -25 15 -8 17 -21 31 -28 30 -9 -2 -12 25 -14 105
-2 152 1 182 24 230 24 50 38 54 38 10z m1146 17 c8 -20 -57 -125 -76 -122
-31 5 -23 54 16 96 39 44 51 49 60 26z m-6208 -302 c154 -214 211 -281 344
-405 183 -171 276 -298 308 -418 6 -25 14 -54 17 -65 3 -11 -35 23 -83 75 -49
52 -163 172 -254 265 -287 296 -423 473 -525 688 -29 61 -56 123 -60 137 -11
45 143 -124 253 -277z m3818 200 c-38 -70 -124 -162 -214 -230 -75 -56 -232
-143 -260 -143 -7 0 20 26 60 59 40 32 154 128 253 213 99 85 182 154 183 152
2 -1 -8 -24 -22 -51z m-1756 -7 c-35 -159 -192 -361 -440 -565 -41 -35 -82
-76 -90 -94 -18 -36 -35 -45 -44 -21 -5 12 16 40 72 98 44 45 152 180 241 299
173 232 260 341 267 334 3 -2 0 -25 -6 -51z m91 -101 c-82 -168 -295 -409
-490 -554 -137 -101 -134 -92 24 70 146 150 289 314 430 496 39 49 72 86 73
81 2 -4 -15 -46 -37 -93z m3319 65 c36 -6 139 -33 231 -60 91 -27 201 -56 245
-63 l79 -14 0 -64 c0 -35 4 -70 9 -77 5 -9 2 -18 -11 -27 -11 -8 -32 -42 -48
-77 -40 -90 -36 -87 -103 -72 -110 26 -168 15 -129 -25 26 -27 -140 -7 -248
31 -55 19 -118 38 -140 42 -37 7 -38 9 -20 22 28 21 56 18 200 -21 71 -19 131
-32 133 -30 3 2 2 11 -2 20 -7 19 -41 32 -106 41 -34 4 -47 10 -38 15 25 16
116 9 210 -16 94 -25 147 -30 183 -16 31 12 -72 47 -275 93 -198 44 -310 77
-310 91 0 6 34 8 83 4 59 -3 121 -18 224 -51 124 -40 235 -66 283 -66 24 0
-47 39 -134 74 -128 51 -221 74 -516 122 l-35 6 25 14 c41 22 128 17 236 -16
54 -16 120 -33 146 -36 53 -7 125 3 112 16 -11 10 -275 82 -392 106 -80 17
-93 28 -42 37 45 8 84 7 150 -3z m-1930 -7 c0 -5 -13 -31 -29 -58 -34 -59
-146 -169 -214 -208 -51 -30 -177 -80 -184 -74 -7 8 102 101 238 204 74 55
143 110 153 122 19 21 36 28 36 14z m1179 -46 c-24 -19 -105 -74 -179 -123
-122 -81 -291 -227 -277 -240 9 -9 100 42 243 138 145 96 259 157 271 145 14
-15 -36 -63 -108 -106 -133 -79 -176 -109 -200 -142 l-23 -32 43 6 c32 4 64
22 134 76 79 60 149 101 173 101 16 0 -23 -33 -75 -61 -63 -36 -111 -77 -111
-95 0 -16 35 -27 64 -20 12 3 49 28 81 57 60 52 91 69 127 69 17 0 19 -2 7
-16 -7 -8 -35 -27 -62 -41 -51 -25 -103 -70 -94 -80 3 -2 36 0 73 6 51 8 72 7
91 -3 24 -12 23 -13 -44 -41 -72 -31 -135 -81 -159 -126 -13 -25 -12 -28 5
-34 28 -8 71 12 116 54 77 74 112 59 41 -17 -71 -76 -54 -129 25 -84 47 27 49
27 49 -1 0 -31 18 -47 52 -47 34 0 34 -3 7 -42 -20 -27 -21 -35 -11 -79 11
-46 10 -51 -19 -94 -50 -74 -125 -312 -105 -332 4 -4 19 -1 34 8 20 11 34 33
52 85 30 86 44 104 80 104 l28 0 -20 -92 c-64 -294 -218 -563 -411 -716 -63
-50 -197 -130 -197 -117 0 4 60 70 134 146 144 148 198 231 212 324 3 25 10
45 15 45 19 0 82 67 105 112 l24 48 -45 0 -45 0 -44 -88 c-66 -132 -155 -258
-258 -367 -88 -94 -258 -238 -329 -279 l-33 -19 22 30 c11 16 77 82 146 147
170 159 283 303 311 395 7 24 6 23 -36 -9 -24 -19 -134 -125 -244 -236 -176
-178 -305 -287 -320 -272 -11 11 59 90 156 177 57 51 130 122 162 159 58 66
125 187 112 200 -4 4 -98 -86 -208 -200 -204 -209 -297 -288 -390 -334 l-52
-25 95 87 c221 203 428 433 399 443 -22 7 -105 -34 -147 -73 -24 -22 -82 -86
-128 -142 -105 -128 -149 -167 -260 -228 -49 -27 -104 -60 -123 -74 -27 -20
-31 -21 -23 -6 21 38 90 105 227 221 77 66 156 140 176 164 51 62 93 128 86
135 -9 9 -113 -66 -255 -185 -222 -187 -372 -294 -388 -278 -10 10 79 98 166
165 143 111 202 164 247 226 24 32 43 63 43 68 0 17 -89 0 -129 -24 -20 -13
-82 -66 -139 -120 -57 -53 -122 -106 -145 -117 -50 -24 -107 -37 -107 -25 0
25 67 85 132 119 92 48 125 71 139 97 11 20 10 21 -36 15 -66 -9 -153 -54
-270 -137 -101 -73 -244 -150 -277 -150 -10 0 -18 6 -18 13 0 24 35 47 116 78
44 17 90 38 104 46 l25 17 -30 8 c-46 12 -134 -8 -248 -57 -102 -43 -215 -80
-222 -73 -3 2 60 38 138 79 244 127 448 258 511 328 27 29 11 44 -26 25 -20
-10 -34 -12 -40 -6 -7 7 -47 -18 -118 -72 -138 -104 -295 -194 -449 -257 -67
-27 -125 -49 -128 -49 -22 0 47 49 127 91 93 47 151 92 137 105 -16 16 -144
-29 -252 -90 -103 -57 -187 -88 -201 -73 -6 6 144 107 261 177 122 73 257 164
275 185 14 17 13 18 -25 11 -60 -11 -132 -47 -274 -136 -71 -45 -159 -92 -197
-105 -73 -26 -130 -33 -119 -14 4 6 118 84 254 173 240 160 386 275 348 276
-29 0 -87 -34 -188 -110 -116 -88 -162 -113 -178 -97 -19 19 -12 45 21 83 l33
37 -40 -7 c-57 -11 -127 -44 -239 -115 -105 -67 -231 -131 -256 -131 -24 1 83
94 295 256 107 82 195 152 195 157 0 15 -128 -57 -290 -163 -91 -59 -199 -124
-240 -144 l-75 -37 60 53 c33 29 127 116 208 193 421 399 542 503 693 603 68
44 114 100 114 135 0 9 15 17 38 20 20 4 51 9 67 13 28 6 27 4 -20 -36 -104
-88 -263 -259 -317 -341 -31 -46 -55 -86 -52 -88 16 -17 159 116 378 352 229
247 335 283 118 40 -79 -89 -132 -159 -132 -177 0 -13 57 24 108 69 28 26 89
92 136 148 130 159 200 219 301 257 13 5 -25 -38 -87 -98 -96 -93 -238 -263
-238 -285 0 -4 11 -12 25 -19 35 -16 67 9 100 79 21 44 60 90 164 193 75 75
158 151 184 169 55 37 153 84 167 79 5 -2 -36 -41 -90 -86 -135 -115 -266
-246 -328 -328 -48 -64 -50 -69 -31 -76 49 -19 106 30 165 142 39 73 80 113
209 200 59 41 120 91 134 111 21 29 34 38 66 42 22 3 51 9 65 12 22 6 20 2
-15 -30 -22 -20 -94 -79 -160 -130 -66 -51 -146 -119 -177 -152 -52 -53 -128
-164 -128 -186 0 -11 77 55 235 203 153 142 248 214 355 268 147 74 138 61
-83 -115 -210 -167 -292 -239 -346 -303 l-42 -50 28 -11 c45 -17 86 10 139 92
33 51 64 84 111 117 36 26 110 81 164 124 124 95 216 154 299 190 87 37 102
35 49 -5z m-2019 -12 c-33 -86 -89 -144 -254 -259 -136 -95 -214 -160 -179
-151 116 31 196 25 411 -30 74 -19 159 -35 188 -35 30 0 54 -3 54 -7 0 -14
-41 -77 -82 -125 -22 -27 -92 -91 -156 -144 -139 -116 -265 -236 -294 -282
-11 -19 -42 -44 -71 -59 -28 -14 -86 -49 -128 -78 -81 -55 -171 -95 -217 -95
-26 0 -26 0 -7 20 11 10 51 41 89 67 69 47 116 97 103 109 -12 12 -116 -45
-203 -111 -50 -37 -90 -61 -92 -55 -7 21 21 60 72 99 28 22 64 53 80 70 26 27
27 31 10 31 -23 0 -71 -25 -117 -63 -20 -15 -52 -31 -73 -34 l-38 -6 95 124
c121 158 116 149 83 149 -22 0 -44 -17 -99 -75 -51 -55 -79 -77 -104 -81 l-33
-7 17 34 c10 19 41 63 70 99 57 70 80 109 71 117 -13 13 -70 -24 -112 -72 -43
-51 -94 -85 -128 -85 -41 0 43 95 184 209 82 67 139 135 116 139 -28 6 -109
-47 -211 -138 -55 -50 -103 -90 -107 -90 -27 0 27 94 92 160 57 59 121 100
260 170 170 85 330 184 330 204 0 11 -65 6 -125 -9 -75 -20 -163 -72 -288
-169 -53 -42 -100 -76 -103 -76 -11 0 102 125 265 292 90 93 166 167 168 164
6 -5 -61 -111 -104 -163 -32 -40 -33 -43 -13 -43 31 0 96 35 190 105 106 78
156 108 172 102 12 -4 -26 -44 -119 -125 l-38 -33 50 4 c68 5 113 36 224 157
95 102 118 120 101 75z m368 -36 c-34 -60 -122 -154 -192 -203 -69 -50 -225
-130 -234 -121 -11 10 82 96 198 183 63 47 144 107 179 134 36 26 66 48 68 48
2 0 -7 -18 -19 -41z m212 23 c0 -4 -13 -28 -28 -53 -35 -54 -107 -121 -187
-176 -70 -47 -205 -117 -212 -109 -12 11 152 157 278 248 133 96 149 106 149
90z m-450 -78 c-36 -36 -100 -94 -144 -129 -76 -62 -193 -132 -202 -122 -8 8
105 125 165 171 50 39 227 146 240 146 3 0 -24 -30 -59 -66z m3290 -274 c0
-33 -37 -63 -68 -55 -37 9 -39 13 -14 31 12 8 22 22 22 30 0 9 11 14 30 14 23
0 30 -4 30 -20z m-689 -214 c-12 -13 -60 -42 -106 -64 -66 -32 -90 -50 -112
-83 -41 -62 -43 -143 -9 -255 15 -47 25 -88 22 -91 -9 -10 -67 82 -81 130 -19
64 -19 110 0 173 38 129 141 212 264 214 l44 0 -22 -24z m369 -72 c115 -26
370 -107 370 -118 0 -23 -65 -116 -82 -116 -28 0 -31 18 -7 51 21 30 22 32 4
45 -61 45 -260 106 -403 124 -48 7 -98 14 -112 18 -22 5 -21 7 15 13 49 9 129
2 215 -17z m1910 -55 c49 -10 50 -11 50 -48 0 -20 6 -43 13 -50 10 -11 4 -12
-30 -6 -48 8 -48 8 -56 -100 -10 -130 -66 -244 -214 -435 -73 -95 -89 -111
-91 -92 -2 14 9 43 27 70 18 27 26 49 20 51 -19 6 -61 -32 -133 -120 -38 -46
-72 -85 -77 -87 -21 -8 -6 56 26 115 19 35 32 63 29 63 -31 0 -100 -64 -153
-143 -18 -26 -44 -55 -58 -64 l-25 -17 24 -18 c15 -12 42 -18 83 -19 33 -1 74
-5 90 -9 l30 -7 -30 -13 c-31 -13 -38 -12 -245 25 l-65 12 36 15 c49 21 105
73 118 108 9 26 8 30 -8 30 -25 0 -88 -48 -143 -108 -44 -49 -48 -52 -75 -41
-53 20 -218 48 -358 59 -77 6 -196 15 -265 21 -176 14 -300 36 -410 72 -94 32
-112 47 -68 58 20 4 17 7 -22 22 -25 9 -79 26 -120 38 -88 25 -138 49 -164 78
-19 21 -19 21 14 21 17 0 107 -25 199 -56 102 -35 190 -59 229 -62 41 -3 61
-9 58 -16 -2 -6 -7 -19 -11 -28 -24 -60 94 45 162 144 27 40 76 123 108 183
31 61 76 143 98 183 l41 72 90 0 c51 0 154 -11 235 -25 232 -40 304 -33 579
56 239 79 342 94 462 68z m-1875 -85 c33 -14 79 -31 103 -37 58 -14 54 -40 -8
-47 l-45 -5 25 -16 c14 -9 42 -22 62 -29 l38 -11 -3 -69 -2 -69 -40 5 c-76 11
-160 36 -337 100 -98 35 -185 64 -194 64 -8 0 -12 5 -9 10 11 18 109 10 188
-15 82 -26 117 -31 117 -16 0 22 -55 49 -131 64 -125 26 -174 67 -79 67 28 0
82 -11 122 -25 97 -34 178 -44 178 -22 0 10 -17 21 -47 29 -30 9 -49 20 -51
31 -5 25 41 22 113 -9z m425 -38 c0 -38 -48 -116 -91 -147 -28 -20 -29 -20
-29 -1 0 11 18 42 40 68 22 27 45 66 51 87 12 44 29 40 29 -7z m-740 -153
c131 -30 435 -158 446 -188 4 -8 -1 -26 -10 -40 -9 -13 -16 -32 -16 -41 0 -14
-10 -16 -73 -12 -105 7 -166 38 -278 142 -100 94 -158 133 -228 153 l-46 13
70 -6 c39 -3 99 -12 135 -21z m2253 -30 c-16 -101 -89 -228 -206 -358 -59 -65
-167 -164 -167 -152 0 2 52 69 116 148 125 156 205 277 232 352 20 56 33 62
25 10z m-2434 -147 c29 -8 55 -17 58 -20 3 -3 -43 -4 -101 -3 -105 2 -122 7
-88 26 24 14 68 13 131 -3z m-219 -101 l0 -75 64 3 c36 1 69 -3 75 -8 7 -7 -5
-45 -35 -115 -25 -58 -52 -122 -59 -142 -14 -37 -14 -38 10 -38 39 0 80 45
116 125 18 41 36 75 41 75 4 0 17 -14 30 -30 19 -26 26 -29 55 -24 28 5 33 3
33 -14 0 -66 -76 -229 -138 -296 -35 -37 -121 -106 -133 -106 -5 0 13 34 41
75 52 78 120 209 120 233 0 25 -70 -40 -188 -173 -129 -146 -184 -198 -256
-244 -90 -56 -80 -33 35 87 64 65 127 141 143 170 l28 53 -39 -20 c-22 -11
-89 -66 -148 -122 -78 -72 -127 -110 -172 -132 -35 -16 -66 -27 -69 -25 -2 3
42 43 98 90 99 83 216 196 256 248 58 76 112 214 111 285 0 41 -75 -63 -129
-179 -43 -92 -59 -117 -84 -129 -17 -8 -62 -43 -101 -77 -38 -34 -95 -74 -125
-88 -30 -15 -59 -33 -63 -39 -4 -7 -13 -13 -20 -13 -6 0 25 34 70 75 145 134
273 318 273 394 0 15 14 37 40 61 34 32 40 43 40 78 0 69 25 107 73 111 4 1 7
-33 7 -74z m-2480 -69 c0 -32 -84 -80 -227 -132 -52 -19 -108 -41 -124 -50
-55 -28 -41 -8 38 55 76 61 193 125 243 134 51 9 70 7 70 -7z m-2653 -141 c13
-9 43 -42 68 -75 25 -32 54 -62 65 -65 29 -9 24 -25 -7 -25 -33 0 -65 26 -118
95 -22 28 -45 54 -52 58 -7 4 -13 12 -13 17 0 15 33 12 57 -5z m5547 -87 c19
-26 21 -91 5 -139 -19 -57 -98 -168 -173 -243 -63 -64 -154 -136 -171 -136 -4
0 16 26 43 58 100 116 214 321 244 435 13 52 28 59 52 25z m127 -170 c-24
-111 -104 -226 -205 -294 -27 -18 -52 -32 -54 -29 -2 2 23 42 57 88 78 108
153 232 183 304 l23 57 3 -38 c2 -21 -2 -60 -7 -88z m124 -5 c-11 -66 -53
-143 -122 -229 -37 -46 -68 -82 -70 -80 -4 4 63 178 86 224 24 47 88 122 103
122 6 0 8 -15 3 -37z m-2417 -35 c-19 -29 -65 -56 -126 -74 -47 -14 -47 -14
-27 5 27 27 135 91 153 91 12 0 12 -3 0 -22z m3031 -118 c-33 -61 -127 -160
-153 -160 -8 0 24 52 82 131 73 97 98 125 100 110 2 -11 -11 -48 -29 -81z
m-541 53 c31 -45 44 -100 40 -169 -3 -55 -8 -69 -33 -94 -17 -16 -46 -33 -65
-36 l-35 -7 20 29 c65 99 78 127 83 174 2 27 0 50 -5 50 -21 0 -55 -35 -77
-78 -28 -55 -58 -85 -80 -80 -12 2 -2 23 39 86 30 46 60 99 67 118 15 41 21
42 46 7z m302 -5 c-1 -13 -24 -48 -55 -82 -70 -75 -74 -48 -5 30 28 31 50 61
50 66 0 4 2 8 5 8 3 0 5 -10 5 -22z m108 -38 c-21 -51 -58 -90 -84 -90 -19 0
-18 30 2 58 13 20 90 82 100 82 2 0 -7 -23 -18 -50z m285 18 c13 -50 -35 -111
-137 -172 -68 -41 -81 -44 -67 -18 12 23 184 212 192 212 4 0 9 -10 12 -22z
m173 -21 c-3 -13 -32 -46 -63 -72 -32 -27 -66 -58 -76 -69 -17 -20 -18 -20
-15 -2 3 17 148 175 157 169 2 -1 1 -13 -3 -26z m-5113 -157 c-44 -42 -130
-74 -180 -68 -25 3 -19 8 47 42 144 75 195 84 133 26z"/>
<path d="M9780 4344 c0 -18 26 -30 88 -42 47 -8 53 -7 50 7 -4 20 -41 37 -95
44 -32 4 -43 2 -43 -9z"/>
<path d="M8084 3846 c-52 -23 -48 -33 15 -38 46 -3 81 -16 161 -56 77 -39 113
-52 146 -52 24 0 44 4 44 10 0 5 -35 30 -77 55 -134 78 -233 106 -289 81z"/>
<path d="M7983 3758 c-35 -17 -28 -25 26 -30 30 -3 85 -22 136 -46 90 -43 137
-51 168 -28 16 13 15 14 -15 20 -18 3 -76 26 -128 51 -97 46 -144 54 -187 33z"/>
<path d="M7783 3300 c-18 -4 -43 -14 -56 -23 -25 -16 -57 -73 -57 -101 0 -39
120 47 141 101 12 31 12 31 -28 23z"/>
<path d="M7309 2396 c-40 -28 -67 -62 -103 -134 -28 -56 -80 -225 -74 -243 6
-17 53 26 81 73 13 24 41 90 62 148 20 58 46 120 56 139 11 18 18 35 16 37 -2
2 -19 -7 -38 -20z"/>
<path d="M7605 1969 c-47 -14 -77 -69 -37 -69 27 0 42 -20 42 -57 0 -26 4 -33
19 -33 28 0 51 38 51 85 0 84 -11 94 -75 74z"/>
<path d="M7179 1918 c-6 -13 -33 -53 -60 -89 -52 -70 -76 -119 -58 -119 39 0
111 66 157 147 l31 52 -24 15 c-31 20 -32 20 -46 -6z"/>
<path d="M7052 1893 c-40 -39 -84 -109 -97 -153 -7 -25 -7 -25 25 5 29 27 130
166 130 180 0 14 -23 1 -58 -32z"/>
<path d="M6632 2128 c-20 -20 -14 -27 29 -38 49 -13 71 -1 53 28 -13 21 -64
28 -82 10z"/>
<path d="M5190 1777 c-78 -76 -136 -143 -153 -176 -16 -29 -27 -54 -24 -57 8
-8 60 16 108 52 42 31 256 280 247 289 -2 2 -14 6 -28 9 -22 6 -42 -10 -150
-117z"/>
<path d="M4952 1863 c-35 -17 -82 -86 -82 -119 0 -11 6 -29 14 -40 14 -18 16
-18 51 16 46 45 72 87 77 125 4 36 -13 42 -60 18z"/>
<path d="M5368 1801 c-69 -69 -106 -117 -96 -126 2 -2 27 7 55 20 92 42 166
138 131 170 -10 10 -28 -3 -90 -64z"/>
<path d="M5125 1851 c-22 -10 -54 -34 -71 -54 -31 -34 -72 -133 -60 -144 12
-13 84 50 141 123 33 41 62 80 63 85 6 15 -30 10 -73 -10z"/>
<path d="M4850 1368 c-41 -61 -103 -149 -137 -195 -35 -47 -63 -87 -63 -89 0
-13 49 0 92 23 78 43 138 137 173 275 28 107 15 104 -65 -14z"/>
<path d="M4740 1424 c0 -54 -29 -103 -111 -190 -48 -50 -94 -105 -104 -124
l-17 -33 41 6 c56 7 96 39 146 116 54 85 126 227 118 235 -4 3 -21 6 -40 6
-24 0 -33 -4 -33 -16z"/>
<path d="M5581 1354 c-41 -34 -63 -79 -90 -184 -12 -47 -25 -93 -27 -102 -9
-31 26 -20 66 20 26 25 43 56 54 92 16 56 38 192 32 198 -2 1 -18 -9 -35 -24z"/>
<path d="M5409 1313 c-6 -16 -22 -59 -36 -98 -14 -38 -29 -74 -34 -79 -34 -37
34 -34 71 2 26 26 50 85 50 123 0 26 -21 79 -31 79 -5 0 -14 -12 -20 -27z"/>
<path d="M4151 1298 c-13 -16 -81 -74 -151 -128 -124 -96 -187 -160 -158 -160
7 0 37 12 67 25 149 70 285 210 269 278 -2 9 -10 5 -27 -15z"/>
<path d="M4969 1255 c-46 -60 -89 -135 -89 -155 0 -20 31 -9 69 26 45 40 74
105 69 155 l-3 34 -46 -60z"/>
<path d="M5254 1243 c-45 -63 -74 -116 -74 -133 0 -20 48 -10 74 16 31 32 49
85 44 137 l-3 39 -41 -59z"/>
<path d="M3640 1233 c-72 -60 -130 -115 -130 -125 0 -24 94 7 137 45 35 31 63
80 63 112 0 22 -9 18 -70 -32z"/>
<path d="M4430 1179 c-113 -91 -161 -143 -137 -147 58 -11 170 75 206 159 12
28 21 52 19 54 -2 1 -41 -28 -88 -66z"/>
<path d="M4198 1126 c-87 -24 -138 -61 -407 -303 l-36 -32 40 11 c92 24 170
77 338 226 102 92 125 114 115 111 -2 0 -24 -6 -50 -13z"/>
<path d="M5146 1058 c-17 -23 -22 -74 -8 -81 11 -7 82 42 82 57 0 12 -40 46
-54 46 -3 0 -12 -10 -20 -22z"/>
<path d="M4850 1047 c-56 -30 -82 -52 -105 -92 -14 -23 -25 -45 -25 -48 0 -4
18 -7 39 -7 32 0 44 6 65 31 14 17 26 36 26 43 0 6 9 28 19 49 21 40 18 43
-19 24z"/>
<path d="M4980 1040 c-22 -22 -44 -69 -36 -77 9 -10 47 19 61 47 27 52 13 68
-25 30z"/>
<path d="M4579 1007 c-19 -12 -57 -53 -85 -91 -28 -37 -57 -72 -65 -77 -10 -6
-2 -9 25 -9 81 0 153 56 205 158 l21 42 -33 0 c-19 0 -49 -10 -68 -23z"/>
<path d="M4405 991 c-72 -33 -124 -106 -96 -134 18 -18 13 -27 -17 -27 -50 0
-115 -29 -177 -77 -69 -54 -60 -65 32 -38 121 35 228 111 315 222 38 49 45 62
32 67 -25 10 -47 7 -89 -13z"/>
<path d="M5403 955 c-42 -58 -45 -79 -12 -83 52 -6 102 81 67 116 -17 17 -19
16 -55 -33z"/>
<path d="M3215 1500 c-119 -100 -235 -226 -235 -255 0 -9 138 101 193 154 86
83 122 168 42 101z"/>
<path d="M2965 1413 c-73 -46 -168 -153 -152 -169 11 -11 109 40 137 73 26 30
70 103 70 118 0 10 -15 4 -55 -22z"/>
<path d="M7151 1387 c-34 -17 -79 -76 -86 -112 -4 -19 -1 -37 8 -49 13 -17 17
-12 61 69 26 48 46 91 44 96 -2 4 -14 3 -27 -4z"/>
<path d="M7231 1356 c-8 -9 -33 -49 -55 -88 -23 -39 -53 -80 -68 -91 -26 -19
-28 -19 -53 -3 -15 10 -28 16 -30 14 -5 -5 -140 -230 -174 -290 -35 -62 -29
-72 24 -39 20 12 47 49 80 110 44 83 83 131 106 131 16 0 -30 -102 -82 -181
-28 -44 -49 -82 -45 -86 12 -12 57 17 74 48 28 52 63 89 82 89 16 0 17 -4 10
-30 -5 -17 -20 -44 -34 -61 -14 -17 -26 -36 -26 -42 0 -15 93 77 135 133 34
46 215 376 215 392 0 15 -57 -21 -84 -53 -15 -18 -43 -64 -63 -103 -47 -93
-87 -148 -123 -170 -17 -9 -30 -14 -30 -11 0 4 27 48 60 99 73 113 102 177 98
218 -3 29 -4 30 -17 14z"/>
<path d="M7434 1281 c-72 -44 -128 -146 -104 -190 11 -21 13 -19 51 40 61 93
102 169 92 169 -4 0 -22 -9 -39 -19z"/>
<path d="M7485 1099 c-11 -4 -32 -8 -46 -8 -16 -1 -29 -8 -32 -18 -2 -10 -8
-26 -12 -35 -12 -29 44 -22 98 12 26 16 47 32 47 34 0 13 -37 23 -55 15z"/>
<path d="M7242 989 c-49 -76 -85 -155 -77 -169 8 -13 70 -23 100 -16 37 9 96
65 116 111 27 59 25 65 -26 65 -37 0 -45 3 -45 18 0 10 -6 26 -13 36 -12 17
-17 12 -55 -45z"/>
<path d="M7440 922 c-36 -18 -100 -93 -100 -118 0 -29 56 -16 88 20 28 32 59
102 50 111 -2 3 -19 -3 -38 -13z"/>
<path d="M7515 831 c-22 -10 -53 -32 -69 -49 l-28 -31 37 -15 c21 -9 39 -16
41 -16 6 0 66 122 62 125 -2 2 -21 -4 -43 -14z"/>
<path d="M7572 767 c-48 -15 -39 -41 16 -45 41 -3 42 -2 42 27 0 33 -6 35 -58
18z"/>
<path d="M6410 1136 c0 -38 120 -84 186 -71 46 8 38 15 -63 54 -90 34 -123 39
-123 17z"/>
<path d="M9230 6064 c-21 -11 -24 -19 -22 -51 4 -38 29 -90 39 -79 3 3 7 20 9
38 1 18 5 47 9 64 8 38 -1 45 -35 28z"/>
<path d="M5675 6052 c-48 -17 -115 -57 -115 -69 0 -10 157 5 181 17 30 15 69
51 69 62 0 14 -83 8 -135 -10z"/>
<path d="M5715 5915 c-61 -25 -100 -59 -89 -77 4 -5 13 -3 22 5 10 8 35 20 57
27 45 14 62 26 76 52 12 23 7 22 -66 -7z"/>
<path d="M11333 5868 c-21 -10 -38 -36 -29 -45 2 -2 32 -3 66 -1 l62 3 -18 22
c-24 27 -53 34 -81 21z"/>
<path d="M5213 5800 c-193 -98 -302 -179 -479 -355 -188 -188 -310 -345 -476
-615 -59 -95 -108 -183 -96 -170 3 3 85 102 183 220 219 264 297 353 439 498
195 199 423 383 502 404 51 14 79 35 89 66 10 35 -12 28 -162 -48z"/>
<path d="M280 5642 l0 -38 113 -12 c220 -23 436 -109 559 -222 69 -63 90 -69
118 -35 27 33 -95 158 -222 228 -136 75 -303 117 -469 117 l-99 0 0 -38z"/>
<path d="M115 5463 c5 -33 -4 -109 -25 -238 -52 -308 -52 -527 -1 -620 l16
-30 3 70 c1 39 12 162 23 275 25 239 29 461 10 538 -16 65 -34 69 -26 5z"/>
<path d="M6222 5460 c-92 -43 -175 -104 -255 -184 -65 -66 -187 -223 -187
-240 0 -10 82 48 161 114 89 75 353 329 347 335 -2 2 -32 -9 -66 -25z"/>
<path d="M6340 5430 c-17 -18 -30 -36 -30 -41 0 -5 -41 -43 -92 -85 -51 -42
-102 -90 -115 -106 -23 -32 -39 -85 -29 -95 3 -4 51 41 106 99 101 108 155
143 199 131 26 -7 27 -20 2 -28 -28 -9 -130 -119 -146 -159 -26 -61 -20 -74
18 -39 48 46 118 93 128 87 5 -3 6 -10 2 -17 -3 -6 9 -2 28 9 19 11 44 38 56
59 l22 39 -30 18 c-35 21 -38 38 -5 38 68 0 19 90 -62 115 -17 5 -29 -1 -52
-25z"/>
<path d="M562 5336 c-7 -18 -12 -37 -12 -42 0 -6 33 -23 73 -38 176 -69 347
-202 408 -320 19 -36 31 -67 29 -69 -5 -5 -365 113 -388 126 -15 10 -16 -11
-3 -46 17 -43 69 -93 164 -158 103 -70 162 -121 183 -161 l14 -26 -105 -7
-105 -7 0 -35 c0 -51 23 -95 71 -137 53 -45 149 -101 149 -86 0 25 -32 69 -74
104 -31 25 -49 50 -57 77 -7 21 -10 41 -8 44 3 2 27 -2 54 -10 58 -18 91 -19
134 -4 78 27 55 83 -74 181 -111 84 -130 100 -150 131 -9 15 -16 27 -14 27 2
0 49 -16 103 -36 103 -36 218 -55 229 -36 9 13 -11 69 -40 113 -13 20 -62 68
-108 108 -79 66 -145 141 -145 164 0 5 10 6 23 2 12 -3 45 -9 72 -12 l50 -6
-19 22 c-31 34 -112 68 -254 106 -73 19 -145 41 -160 49 -28 14 -29 14 -40
-18z"/>
<path d="M374 4857 c-4 -10 -4 -54 -1 -97 4 -63 14 -98 49 -182 l45 -103 -43
-3 c-31 -2 -44 -8 -46 -20 -2 -9 -28 48 -57 128 -29 80 -62 168 -72 195 l-20
50 5 -77 c12 -166 63 -345 150 -518 46 -92 262 -450 271 -450 2 0 -19 48 -46
108 -51 109 -170 384 -208 480 l-21 52 23 -14 c19 -13 26 -13 55 1 40 20 42
18 73 -77 30 -90 65 -157 89 -170 11 -6 20 -8 20 -5 0 12 -93 337 -122 425
-32 100 -95 241 -121 275 -15 19 -16 19 -23 2z"/>
<path d="M8565 4710 c-4 -11 -24 -41 -46 -66 -37 -43 -48 -72 -32 -88 4 -3 33
19 65 51 58 57 70 87 46 111 -17 17 -26 15 -33 -8z"/>
<path d="M6345 4620 c-4 -6 11 -31 32 -57 102 -121 133 -174 133 -224 0 -31 0
-32 -41 -25 -64 10 -161 59 -281 142 -121 83 -124 79 -27 -41 122 -151 323
-258 530 -283 l70 -9 33 39 c41 47 167 298 150 298 -3 0 -18 -7 -34 -15 -20
-10 -42 -41 -75 -107 -55 -109 -70 -128 -102 -128 -33 0 -29 18 22 90 42 59
71 127 60 139 -13 12 -60 -29 -95 -86 -50 -79 -80 -101 -117 -84 l-27 12 57
53 c58 53 70 83 43 105 -12 10 -22 5 -54 -23 -22 -20 -43 -36 -48 -36 -5 0 -9
24 -9 53 0 63 -35 122 -99 169 -40 29 -108 39 -121 18z"/>
<path d="M5880 4526 c0 -3 48 -56 106 -118 147 -157 178 -219 59 -117 -33 28
-73 60 -90 70 -34 22 -75 25 -75 7 0 -21 172 -180 233 -217 92 -54 175 -84
254 -89 110 -7 117 1 42 49 -35 22 -96 55 -135 74 -66 32 -75 40 -112 102 -94
159 -178 243 -243 243 -22 0 -39 -2 -39 -4z"/>
<path d="M37 4483 c-11 -19 -20 -85 -26 -199 -3 -68 -5 -124 -4 -124 1 0 13 4
27 10 18 7 35 5 61 -6 47 -19 60 -10 29 21 -22 22 -24 32 -24 117 0 107 -13
163 -40 178 -10 5 -21 7 -23 3z"/>
<path d="M7003 4377 c-39 -62 -99 -148 -132 -192 -52 -69 -57 -80 -40 -83 70
-12 206 157 243 303 27 100 7 92 -71 -28z"/>
<path d="M7187 4483 c-4 -3 -7 -14 -7 -23 0 -35 -72 -158 -140 -240 -66 -79
-106 -138 -98 -145 2 -1 23 4 48 11 57 17 118 68 160 134 26 40 120 249 120
266 0 7 -76 4 -83 -3z"/>
<path d="M7800 4456 c-19 -13 -45 -37 -57 -53 -29 -40 -115 -214 -109 -220 15
-16 123 92 156 156 31 62 61 141 52 141 -4 0 -23 -11 -42 -24z"/>
<path d="M7644 4421 c-67 -64 -113 -123 -157 -198 -41 -71 -35 -78 40 -42 47
23 98 80 131 145 22 43 48 132 40 139 -2 2 -26 -18 -54 -44z"/>
<path d="M7468 4400 c-26 -17 -58 -46 -73 -66 -27 -35 -96 -176 -90 -182 2 -2
17 -1 34 3 48 10 112 90 150 185 18 45 30 84 28 86 -2 2 -24 -10 -49 -26z"/>
<path d="M7310 4411 c0 -6 -25 -46 -56 -91 -45 -66 -84 -143 -84 -166 0 -2 9
-4 20 -4 36 0 80 53 129 153 43 89 45 99 30 108 -23 12 -39 12 -39 0z"/>
<path d="M8755 4257 c-88 -36 -154 -78 -200 -127 l-30 -33 30 7 c54 12 189 85
240 130 27 25 47 47 45 50 -3 3 -42 -9 -85 -27z"/>
<path d="M8862 4207 c-53 -22 -202 -125 -202 -139 0 -17 87 -7 128 15 48 25
181 128 181 140 1 14 -55 6 -107 -16z"/>
<path d="M8949 4135 c-66 -24 -116 -54 -143 -85 -33 -39 -33 -50 -1 -50 58 0
135 51 187 123 22 31 14 33 -43 12z"/>
<path d="M9104 4079 c-67 -11 -136 -41 -197 -86 -60 -44 -69 -39 138 -90 130
-32 166 -37 272 -37 l122 -1 34 40 c25 28 32 44 25 52 -8 10 -16 10 -37 -1
-50 -26 -130 -47 -162 -44 l-33 3 52 32 c29 18 52 37 52 43 0 24 -31 19 -95
-14 -71 -38 -119 -47 -109 -21 3 8 22 24 42 36 50 30 82 60 82 76 0 21 -43 6
-167 -59 -62 -32 -123 -58 -134 -58 -22 0 -22 0 -3 21 10 11 53 38 96 61 43
22 78 44 78 49 0 5 -1 8 -2 8 -2 -1 -26 -5 -54 -10z"/>
<path d="M3 4027 c12 -32 26 -136 42 -305 16 -179 40 -282 75 -324 l19 -23 0
85 c1 80 -11 285 -25 465 l-6 81 -37 12 c-75 26 -75 26 -68 9z"/>
<path d="M713 3933 c7 -41 32 -73 59 -73 42 0 5 91 -43 103 -20 5 -21 3 -16
-30z"/>
<path d="M5522 3868 c-17 -108 -44 -183 -138 -380 -47 -98 -92 -197 -100 -220
l-15 -42 32 29 c97 92 177 259 255 530 42 147 42 155 6 155 -28 0 -29 -2 -40
-72z"/>
<path d="M9588 3901 c-34 -4 -64 -13 -75 -24 -16 -16 -15 -17 27 -18 63 -2 92
2 113 12 19 11 23 40 5 38 -7 -1 -39 -5 -70 -8z"/>
<path d="M5652 3849 c-13 -30 -59 -139 -102 -244 -43 -104 -94 -225 -113 -268
l-36 -78 29 21 c115 82 261 427 248 584 l-3 39 -23 -54z"/>
<path d="M5405 3822 c-39 -79 -265 -562 -276 -590 -8 -20 -7 -21 10 -13 56 30
140 158 195 298 33 82 110 353 103 360 -2 1 -16 -23 -32 -55z"/>
<path d="M5217 3733 c-2 -5 -10 -26 -17 -48 -7 -22 -62 -138 -122 -258 -60
-120 -108 -223 -106 -228 2 -6 22 3 45 20 71 51 136 163 177 303 32 109 47
253 23 211z"/>
<path d="M4772 3436 c-101 -199 -240 -434 -419 -705 -73 -112 -132 -205 -130
-207 7 -7 132 102 181 157 90 102 168 234 334 569 92 184 168 338 170 343 2 4
-9 7 -25 7 -26 0 -33 -10 -111 -164z"/>
<path d="M3374 3563 c-9 -16 -52 -71 -95 -123 -80 -99 -102 -134 -113 -185
l-7 -30 28 35 c15 19 56 66 91 103 72 79 107 136 116 190 8 44 4 46 -20 10z"/>
<path d="M4628 3432 c-15 -37 -59 -123 -98 -192 -39 -69 -96 -177 -128 -240
-45 -93 -80 -143 -177 -262 -114 -138 -184 -242 -171 -255 9 -10 104 66 162
130 93 103 169 229 309 512 74 149 148 294 165 323 l30 52 -32 0 c-31 0 -34
-4 -60 -68z"/>
<path d="M4502 3478 c-5 -7 -40 -67 -77 -133 -189 -336 -366 -610 -509 -785
-55 -67 -81 -106 -72 -108 32 -7 143 62 211 132 124 125 217 282 355 596 45
102 95 208 111 236 22 39 26 53 17 62 -15 15 -23 15 -36 0z"/>
<path d="M4286 3370 c-10 -19 -60 -105 -111 -191 -92 -154 -189 -338 -183
-345 11 -11 177 210 235 313 45 81 85 196 81 231 l-3 27 -19 -35z"/>
<path d="M4093 3254 c-134 -187 -262 -394 -244 -394 24 0 143 131 200 220 58
90 126 240 119 262 -2 6 -36 -34 -75 -88z"/>
<path d="M3916 3268 c-46 -47 -76 -90 -115 -168 -102 -200 -170 -289 -398
-521 -97 -99 -123 -132 -123 -153 l0 -27 33 22 c67 47 184 150 232 206 111
127 178 226 330 488 48 83 96 165 107 183 32 52 2 38 -66 -30z"/>
<path d="M3433 3228 c-33 -41 -40 -62 -24 -72 13 -8 71 68 71 93 0 30 -11 25
-47 -21z"/>
<path d="M141 3100 c-1 -262 26 -449 85 -580 24 -55 25 -60 10 -82 -23 -32
-21 -141 3 -195 18 -39 56 -72 69 -59 13 13 -16 159 -37 187 l-22 29 24 0 c23
0 23 1 15 83 -12 123 -42 288 -97 533 l-50 219 0 -135z"/>
<path d="M3750 2773 c-57 -44 -335 -361 -325 -371 8 -8 87 28 134 61 91 62
175 165 240 295 17 34 27 62 23 62 -5 0 -37 -21 -72 -47z"/>
<path d="M3896 2757 c-12 -26 -75 -99 -164 -189 -80 -82 -143 -150 -140 -154
9 -8 86 15 139 41 70 36 152 132 204 239 25 50 45 95 45 99 0 4 -15 7 -32 7
-29 0 -35 -6 -52 -43z"/>
<path d="M1641 2696 c10 -41 37 -193 59 -339 56 -377 82 -493 136 -615 26 -59
90 -152 105 -152 5 0 -1 24 -13 53 -75 186 -136 439 -199 832 -36 222 -45 263
-63 277 -40 33 -45 22 -25 -56z"/>
<path d="M265 2013 c3 -21 9 -81 15 -133 6 -52 18 -120 26 -150 27 -93 36 -32
22 156 l-12 164 -28 0 c-27 0 -28 -2 -23 -37z"/>
<path d="M1940 1501 c0 -18 136 -353 175 -432 75 -149 240 -365 252 -331 10
26 -29 103 -104 204 -53 72 -100 153 -155 268 -116 244 -142 294 -155 298 -7
2 -13 -1 -13 -7z"/>
<path d="M1810 1473 c0 -5 7 -16 15 -27 8 -10 17 -38 21 -61 9 -61 38 -105 69
-105 l24 0 -35 77 c-19 43 -45 88 -56 100 -21 23 -38 30 -38 16z"/>
<path d="M1760 1376 c0 -45 36 -96 68 -96 15 0 -3 68 -24 91 -20 22 -44 25
-44 5z"/>
<path d="M550 1315 c0 -46 22 -95 58 -126 31 -27 38 -30 40 -16 4 19 -32 83
-73 132 -22 26 -25 27 -25 10z"/>
<path d="M705 1075 c80 -140 188 -269 253 -304 l23 -12 -15 36 c-31 73 -92
149 -203 250 l-87 80 29 -50z"/>
<path d="M1061 513 c98 -163 231 -279 352 -307 18 -4 28 -3 25 3 -9 29 -370
341 -393 341 -4 0 4 -17 16 -37z"/>
<path d="M1027 382 c16 -27 15 -32 -6 -89 -33 -89 -15 -135 44 -113 17 6 27
20 31 40 4 16 9 30 11 30 3 0 21 -13 40 -30 27 -24 43 -30 79 -30 42 0 44 1
34 20 -6 12 -41 53 -78 91 -62 67 -123 109 -156 109 -13 0 -13 -4 1 -28z"/>
</g>
</svg>
